<?xml version="1.0" standalone="no"?>
<!DOCTYPE svg PUBLIC "-//W3C//DTD SVG 20010904//EN"
 "http://www.w3.org/TR/2001/REC-SVG-20010904/DTD/svg10.dtd">
<svg version="1.0" xmlns="http://www.w3.org/2000/svg"
 width="1823.000000pt" height="597.000000pt" viewBox="0 0 1823.000000 597.000000"
 preserveAspectRatio="xMidYMid meet">
<metadata>
Created by potrace 1.16, written by Peter Selinger 2001-2019
</metadata>
<g transform="translate(0.000000,597.000000) scale(0.100000,-0.100000)"
fill="#000000" stroke="none">
<path d="M2944 4826 c-177 -59 -281 -214 -254 -381 12 -76 41 -133 95 -188
138 -139 356 -133 488 13 125 138 114 350 -24 474 -84 75 -216 111 -305 82z
m155 -260 c20 -21 26 -36 26 -72 0 -39 -5 -50 -33 -75 -87 -78 -210 16 -161
124 27 60 118 73 168 23z"/>
<path d="M3570 4413 c-18 -54 -35 -103 -37 -109 -2 -6 18 -19 44 -29 140 -52
315 -157 445 -264 185 -153 367 -407 449 -627 12 -31 26 -54 32 -51 7 2 55 19
107 37 52 18 97 34 99 36 7 6 -41 117 -101 234 -167 327 -446 605 -778 775
-92 47 -204 95 -221 95 -3 0 -21 -44 -39 -97z"/>
<path d="M2330 4466 c-100 -33 -99 -179 1 -213 46 -15 84 -6 118 28 33 33 42
68 30 114 -17 61 -84 93 -149 71z"/>
<path d="M1955 4246 c-43 -19 -66 -49 -71 -93 -11 -91 89 -157 171 -113 77 41
70 166 -11 205 -38 18 -50 18 -89 1z"/>
<path d="M1643 3936 c-38 -17 -63 -61 -63 -112 0 -28 8 -44 34 -70 29 -29 41
-34 79 -34 51 0 88 24 107 69 38 94 -63 189 -157 147z"/>
<path d="M6828 3918 c-27 -6 -48 -14 -48 -18 0 -4 -13 -13 -30 -20 -16 -7 -30
-16 -30 -21 0 -4 -8 -16 -19 -26 -10 -10 -23 -33 -30 -52 -16 -50 -14 -172 5
-217 20 -48 82 -111 123 -125 17 -6 31 -14 31 -18 0 -4 18 -14 40 -21 22 -7
40 -16 40 -20 0 -4 20 -15 43 -24 37 -14 46 -23 55 -54 18 -59 0 -108 -43
-123 -19 -7 -35 -17 -35 -21 0 -4 -27 -8 -60 -8 -33 0 -60 4 -60 9 0 5 -16 12
-35 15 -19 4 -40 12 -48 19 -20 19 -55 37 -71 37 -17 0 -30 -61 -21 -101 8
-36 41 -74 75 -84 14 -4 28 -13 32 -19 10 -16 260 -15 265 1 3 7 20 17 39 23
19 6 34 15 34 20 0 4 12 13 28 19 16 7 35 28 47 54 11 23 23 44 27 47 4 3 10
35 14 71 6 58 3 71 -22 125 -15 32 -31 61 -36 62 -4 2 -6 8 -2 13 3 5 2 9 -3
7 -11 -2 -73 35 -73 45 0 4 -5 7 -11 7 -7 0 -19 8 -28 18 -9 11 -40 27 -68 36
-29 10 -53 21 -53 25 0 4 -11 13 -25 19 -14 6 -25 19 -25 27 0 9 -4 13 -10 10
-10 -6 -15 21 -11 63 1 13 14 35 29 49 24 23 34 25 95 21 38 -2 71 -9 75 -14
4 -6 24 -17 45 -25 20 -7 37 -17 37 -21 0 -18 28 -6 34 15 18 67 3 133 -32
142 -15 4 -30 11 -33 17 -16 25 -162 34 -251 16z"/>
<path d="M5810 3901 c-13 -25 -13 -542 0 -634 6 -38 17 -75 25 -83 8 -9 15
-20 15 -26 0 -18 89 -99 122 -110 18 -6 36 -16 40 -22 10 -15 266 -15 276 0 4
6 21 16 38 21 43 15 124 84 124 106 0 5 6 15 14 23 13 12 34 115 28 137 -1 4
3 7 8 7 6 0 10 106 10 298 0 166 -4 291 -9 284 -7 -11 -9 -11 -14 2 -5 12 -21
16 -69 16 -35 0 -68 -4 -75 -8 -9 -6 -13 -92 -15 -330 -2 -201 -7 -325 -13
-330 -6 -4 -17 -20 -25 -36 -8 -16 -27 -33 -42 -38 -16 -6 -28 -14 -28 -19 0
-5 -27 -9 -60 -9 -33 0 -60 4 -60 10 0 6 -8 10 -17 10 -31 0 -74 47 -89 96
-11 36 -14 116 -14 344 l0 298 -22 6 c-13 3 -49 6 -80 6 -46 0 -59 -4 -68 -19z"/>
<path d="M7254 3906 c-3 -7 -4 -38 -2 -67 l3 -54 118 -3 117 -3 0 -365 c0
-303 2 -368 14 -380 20 -19 113 -19 132 1 12 12 15 73 15 379 l-1 365 118 3
117 3 5 35 c3 19 3 50 1 68 l-3 32 -314 0 c-257 0 -316 -3 -320 -14z"/>
<path d="M2845 3815 c-204 -38 -393 -139 -540 -290 -138 -142 -231 -319 -270
-514 -24 -114 -16 -331 15 -446 93 -343 370 -621 717 -717 67 -19 104 -22 258
-22 167 0 186 2 270 28 50 15 128 46 175 70 499 248 702 853 452 1351 -90 182
-265 356 -452 450 -182 92 -425 127 -625 90z m365 -241 c145 -34 312 -139 407
-256 198 -246 234 -554 98 -833 -52 -108 -117 -190 -205 -262 -252 -205 -601
-229 -883 -62 -330 196 -467 624 -312 974 51 117 150 239 250 310 197 140 415
183 645 129z"/>
<path d="M2917 3384 c-4 -4 -7 -157 -7 -341 l0 -333 225 0 225 0 0 115 0 115
-110 0 -110 0 -2 223 -3 222 -106 3 c-58 1 -108 -1 -112 -4z"/>
<path d="M1402 3542 c-36 -33 -50 -89 -32 -123 34 -66 93 -93 151 -69 45 19
69 56 69 107 0 38 -5 50 -34 79 -29 29 -41 34 -79 34 -35 0 -51 -6 -75 -28z"/>
<path d="M1323 3145 c-37 -16 -73 -68 -73 -106 0 -41 40 -92 86 -108 36 -12
44 -12 77 4 88 41 90 168 3 209 -41 19 -51 19 -93 1z"/>
<path d="M4455 3065 c-38 -40 -71 -77 -72 -82 -2 -5 28 -40 67 -78 38 -38 70
-74 70 -80 0 -6 -31 -42 -70 -80 -38 -38 -70 -74 -70 -80 0 -13 142 -155 155
-155 6 0 44 34 85 75 l75 75 77 -77 78 -78 81 81 81 81 -78 76 -78 77 79 80
80 80 -83 82 -82 83 -79 -79 -78 -78 -76 76 c-42 42 -79 76 -84 76 -4 -1 -39
-34 -78 -75z"/>
<path d="M8270 2834 c-130 -35 -214 -121 -250 -254 -7 -25 -13 -97 -15 -160
l-2 -115 -117 -3 -116 -3 0 -79 0 -80 28 1 c15 1 68 1 117 0 l90 -1 -2 -580
-3 -580 95 0 95 0 0 583 0 582 194 -2 c220 -3 201 -12 201 92 l0 60 -204 3
-203 2 4 123 c3 92 9 131 22 157 43 82 98 113 206 114 65 1 84 -3 137 -29 l62
-31 30 68 30 68 -42 24 c-89 52 -250 70 -357 40z"/>
<path d="M15460 2450 l0 -389 -73 73 c-135 135 -304 190 -509 167 -220 -25
-398 -141 -492 -321 -61 -116 -80 -199 -80 -335 1 -215 54 -355 184 -486 82
-83 190 -145 305 -174 75 -19 229 -19 318 0 122 26 251 110 328 214 l25 35 -3
-95 c-2 -52 -1 -109 2 -126 l6 -33 84 0 85 0 0 930 0 930 -90 0 -90 0 0 -390z
m-367 -315 c209 -54 346 -223 363 -448 21 -264 -121 -482 -351 -542 -181 -47
-367 4 -488 134 -109 117 -157 318 -117 491 62 270 328 434 593 365z"/>
<path d="M5560 1855 l0 -875 95 0 95 0 0 875 0 875 -95 0 -94 0 -1 -875z"/>
<path d="M1298 2700 c-58 -45 -61 -129 -7 -174 40 -34 70 -41 114 -26 45 15
75 61 75 114 0 30 -7 45 -34 72 -29 29 -41 34 -79 34 -29 0 -53 -7 -69 -20z"/>
<path d="M1440 2297 c-39 -14 -80 -67 -80 -106 0 -65 78 -130 141 -116 16 4
42 19 59 35 24 22 30 36 30 70 0 59 -22 95 -70 114 -22 9 -41 16 -43 15 -1 0
-18 -5 -37 -12z"/>
<path d="M4479 2283 c-158 -418 -480 -743 -912 -917 -24 -10 -37 -21 -34 -28
3 -7 20 -55 37 -106 38 -110 25 -107 185 -37 369 165 680 464 863 830 61 121
94 207 84 216 -11 9 -182 69 -198 69 -8 0 -19 -12 -25 -27z"/>
<path d="M6844 2300 c-137 -20 -274 -92 -345 -182 -21 -28 -40 -44 -41 -36 0
7 -2 18 -3 23 -2 6 -3 52 -4 103 l-1 92 -85 0 -85 0 0 -660 0 -660 90 0 90 0
0 363 c1 199 3 380 6 402 32 250 197 395 451 396 205 2 343 -98 383 -278 7
-31 11 -198 10 -466 l-1 -418 93 3 93 3 -1 435 c0 373 -2 445 -17 503 -47 188
-168 313 -352 363 -61 17 -212 24 -281 14z"/>
<path d="M9575 2299 c-149 -19 -284 -95 -347 -197 -11 -18 -22 -31 -25 -28 -3
2 -6 53 -6 113 l-2 108 -87 3 -88 3 0 -661 0 -660 89 0 89 0 4 398 c4 347 7
404 22 452 26 80 52 126 99 177 74 80 178 123 301 124 l66 1 0 89 0 90 -32 -3
c-18 -1 -56 -5 -83 -9z"/>
<path d="M10342 2299 c-136 -17 -314 -86 -390 -149 l-24 -20 37 -65 c20 -36
39 -65 42 -65 3 0 32 18 64 39 115 77 267 116 411 107 148 -10 238 -57 290
-153 29 -52 51 -166 46 -229 l-3 -37 -275 -2 c-242 -2 -284 -5 -352 -23 -106
-29 -147 -52 -206 -117 -90 -98 -114 -231 -66 -370 12 -35 35 -68 78 -110 97
-96 204 -135 372 -135 181 0 309 46 405 143 51 52 59 49 52 -23 -2 -24 -2 -59
2 -77 l6 -33 85 0 84 0 0 438 c-1 471 -6 534 -54 638 -49 107 -160 194 -290
228 -71 19 -229 26 -314 15z m478 -817 c0 -106 0 -108 -37 -171 -83 -139 -234
-211 -420 -199 -181 12 -279 90 -290 232 -4 53 -1 68 24 116 24 45 38 60 84
83 77 39 121 44 397 46 l242 1 0 -108z"/>
<path d="M11915 2300 c-213 -31 -405 -167 -493 -350 -167 -349 -37 -755 293
-915 179 -86 435 -87 615 -2 67 31 210 160 210 188 0 8 -29 33 -65 56 l-64 42
-30 -38 c-42 -52 -123 -106 -201 -131 -85 -28 -244 -25 -332 7 -203 75 -323
266 -313 503 13 291 213 490 493 490 124 0 238 -46 325 -132 32 -32 61 -58 63
-58 11 0 124 81 124 89 0 4 -16 28 -35 53 -61 81 -176 152 -295 183 -71 19
-216 26 -295 15z"/>
<path d="M13275 2296 c-146 -29 -252 -84 -351 -181 -79 -79 -141 -189 -170
-305 -22 -85 -22 -253 0 -342 57 -239 252 -430 492 -484 114 -25 293 -16 392
21 103 37 178 84 244 152 135 136 190 276 190 483 2 318 -194 578 -487 645
-93 22 -230 26 -310 11z m255 -162 c216 -49 360 -245 360 -491 0 -152 -42
-269 -129 -365 -93 -101 -206 -148 -356 -148 -144 0 -245 40 -341 135 -124
123 -174 322 -129 513 64 270 314 420 595 356z"/>
<path d="M16515 2295 c-139 -25 -243 -83 -342 -188 -114 -122 -173 -280 -173
-461 0 -132 20 -222 70 -322 78 -154 207 -265 376 -320 83 -27 99 -29 244 -28
140 0 163 3 235 27 94 31 162 71 227 134 l47 46 -51 58 -51 59 -49 -45 c-94
-84 -212 -125 -361 -125 -265 0 -465 162 -503 408 l-7 42 553 0 553 0 -6 103
c-20 354 -265 608 -600 621 -51 2 -123 -2 -162 -9z m319 -183 c150 -70 238
-187 269 -359 l7 -33 -466 0 -466 0 6 48 c11 71 68 185 125 246 95 99 198 138
357 133 88 -3 109 -7 168 -35z"/>
<path d="M1633 1910 c-40 -24 -53 -48 -53 -99 0 -117 171 -153 216 -46 18 43
18 59 -1 99 -30 62 -102 83 -162 46z"/>
<path d="M1943 1610 c-29 -12 -63 -67 -63 -103 0 -40 26 -84 60 -102 82 -42
170 14 170 111 0 53 -53 104 -106 103 -22 0 -49 -4 -61 -9z"/>
<path d="M2308 1383 c-30 -19 -58 -68 -58 -101 0 -27 41 -84 70 -99 83 -42
184 42 159 131 -21 72 -111 108 -171 69z"/>
<path d="M3090 1275 l-125 -125 -72 72 -73 72 -75 -76 c-41 -42 -75 -82 -75
-89 0 -15 281 -299 296 -299 5 0 101 92 214 205 l205 205 -80 80 c-44 44 -82
80 -85 80 -3 0 -61 -56 -130 -125z"/>
</g>
</svg>
